# xmcd
# 
# Track frame offsets:
#     150
#     17888
#     35281
#     46603
#     68685
#     81198
#     100450
#     120204
# 
# Disc length: 1993
# 
# Revision: 1
# Processed by: cddbd v1.5.2PL0 Copyright (c) Steve Scherf et al.
# Submitted via: fre:ac v1.0.27
# 
DISCID=5607c708
DTITLE=The Marshall Tucker Band - Searchin' For A Rainbow
DYEAR=1975
DGENRE=Southern Rock
TTITLE0=Fire On The Mountain
TTITLE1=Searchin' For A Rainbow
TTITLE2=Walkin' And Talkin'
TTITLE3=Virginia
TTITLE4=Bob Away My Blues
TTITLE5=Keeps Me From All Wrong
TTITLE6=Bound And Determined
TTITLE7=Can't You See
EXTD=
EXTT0=
EXTT1=
EXTT2=
EXTT3=
EXTT4=
EXTT5=
EXTT6=
EXTT7=
PLAYORDER=
